<?xml version="1.0" encoding="UTF-8"?>
<!-- Created with Inkscape (http://www.inkscape.org/) -->
<svg id="svg842" width="398.61mm" height="133.49mm" version="1.1" viewBox="0 0 398.61 133.49" xmlns="http://www.w3.org/2000/svg">
  <g id="layer1">
    <path id="Shape" d="m19.49 70.785c-3.86 0-7.2579-0.8427-10.194-2.5281-2.9358-1.7396-5.2192-4.1318-6.8502-7.1766-1.631-3.0984-2.4465-6.6594-2.4465-10.683 0-4.8386 1.1961-9.0792 3.5882-12.721 2.4465-3.6427 5.8987-6.4427 10.357-8.4 4.5124-1.9568 9.786-2.9355 15.821-2.9355 2.7727 0 5.0289 0.1901 6.7687 0.5709v-1.7125c0-4.132-0.7612-7.2038-2.2834-9.2153-1.5223-2.0659-3.8329-3.0989-6.9318-3.0989-5.0017 0-8.2093 2.6368-9.6228 7.9103-0.4349 1.5223-1.3319 2.1747-2.6911 1.9572l-11.091-1.9572c-0.81553-0.1631-1.3864-0.5165-1.7126-1.0601-0.27182-0.5437-0.29901-1.2776-0.0815-2.2018 1.4135-5.5454 4.4037-9.8404 8.9704-12.885 4.6212-3.0989 10.411-4.6483 17.37-4.6483 8.2637 0 14.543 2.229 18.838 6.6871 4.3494 4.458 6.5239 10.955 6.5239 19.491v41.019c0 0.5979-0.2172 1.1141-0.6521 1.549-0.3807 0.3807-0.8703 0.5708-1.4682 0.5708h-10.601c-1.3048 0-2.1202-0.7068-2.4464-2.1198l-1.631-7.6656h-0.6524c-1.4679 3.588-3.6697 6.3604-6.6055 8.3177-2.8814 1.9573-6.3065 2.9359-10.275 2.9359zm-1.7126-22.345c0 2.8818 0.734 5.1922 2.2019 6.9318 1.5223 1.6854 3.561 2.5281 6.1162 2.5281 3.3707 0 5.9531-1.4953 7.7472-4.4854 1.7941-3.0443 2.6912-7.3938 2.6912-13.048v-4.3224c-1.5223-0.2718-2.963-0.4078-4.3222-0.4078-4.458 0-7.9918 1.1688-10.601 3.5068-2.5552 2.2833-3.8329 5.3823-3.8329 9.2964zm46.157-44.852c0-0.59803 0.1907-1.0873 0.5709-1.4679 0.4349-0.43495 0.9515-0.6524 1.5495-0.6524h10.765c0.5979 0 1.0875 0.19026 1.4677 0.57083 0.4354 0.38058 0.7068 0.89704 0.8156 1.5494l1.6313 7.9918h0.6521c1.4682-3.7512 3.5609-6.6055 6.2797-8.5627 2.7724-2.0116 6.0344-3.0173 9.7854-3.0173 4.023 0 7.476 1.0601 10.357 3.1804 2.936 2.1203 5.192 5.1376 6.769 9.0519h0.652c2.392-4.1318 5.084-7.2035 8.074-9.2151s6.333-3.0173 10.03-3.0173c4.023 0 7.503 1.0873 10.438 3.2619 2.991 2.1747 5.274 5.2736 6.85 9.2966 1.577 4.0232 2.366 8.7802 2.366 14.271v40.367c0 0.5979-0.218 1.1141-0.653 1.549-0.381 0.3807-0.87 0.5708-1.468 0.5708h-13.048c-0.598 0-1.114-0.1901-1.549-0.5708-0.381-0.4349-0.571-0.9511-0.571-1.549v-39.063c0-3.9688-0.761-7.0131-2.283-9.1334-1.523-2.1202-3.724-3.1804-6.606-3.1804-3.153 0-5.572 1.2504-7.258 3.7513-1.631 2.5008-2.446 6.1161-2.446 10.846v36.779c0 0.5979-0.218 1.1141-0.653 1.549-0.38 0.3807-0.87 0.5708-1.468 0.5708h-13.048c-0.597 0-1.114-0.1901-1.549-0.5708-0.381-0.4349-0.5709-0.9511-0.5709-1.549v-39.063c0-3.9688-0.7609-7.0131-2.2833-9.1334-1.5224-2.1202-3.724-3.1804-6.6052-3.1804-3.1537 0-5.573 1.2504-7.2584 3.7513-1.6307 2.5008-2.4464 6.1161-2.4464 10.846v36.779c0 0.5979-0.2172 1.1141-0.6521 1.549-0.3807 0.3807-0.8703 0.5708-1.4682 0.5708h-13.048c-0.598 0-1.1146-0.1901-1.5495-0.5708-0.3802-0.4349-0.5709-0.9511-0.5709-1.549zm97.533 46.809c0-4.8386 1.197-9.0792 3.589-12.721 2.446-3.6427 5.898-6.4427 10.357-8.4 4.512-1.9568 9.786-2.9355 15.82-2.9355 2.773 0 5.029 0.1901 6.769 0.5709v-1.7125c0-4.132-0.762-7.2038-2.284-9.2153-1.522-2.0659-3.832-3.0989-6.931-3.0989-5.002 0-8.21 2.6368-9.623 7.9103-0.435 1.5223-1.332 2.1747-2.691 1.9572l-11.091-1.9572c-0.816-0.1631-1.387-0.5165-1.713-1.0601-0.271-0.5437-0.299-1.2776-0.081-2.2018 1.413-5.5454 4.403-9.8404 8.971-12.885 4.62-3.0989 10.41-4.6483 17.369-4.6483 8.264 0 14.543 2.229 18.838 6.6871 4.349 4.458 6.524 10.955 6.524 19.491v41.019c0 0.5979-0.217 1.1141-0.652 1.549-0.381 0.3807-0.87 0.5708-1.468 0.5708h-10.601c-1.305 0-2.121-0.7068-2.447-2.1198l-1.631-7.6656h-0.652c-1.468 3.588-3.67 6.3604-6.606 8.3177-2.881 1.9573-6.306 2.9359-10.275 2.9359s-7.258-0.8427-10.194-2.5281c-2.936-1.7396-5.219-4.1318-6.85-7.1766-1.631-3.0984-2.447-6.6594-2.447-10.683zm17.779-1.9573c0 2.8818 0.733 5.1922 2.201 6.9318 1.522 1.6854 3.561 2.5281 6.116 2.5281 3.371 0 5.953-1.4953 7.748-4.4854 1.793-3.0443 2.691-7.3938 2.691-13.048v-4.3224c-1.523-0.2718-2.963-0.4078-4.323-0.4078-4.457 0-7.991 1.1688-10.601 3.5068-2.555 2.2833-3.832 5.3823-3.832 9.2964zm44.852 8.8891c0-1.1959 0.326-2.2292 0.978-3.099l27.89-39.062h-26.096c-0.598 0-1.114-0.1903-1.549-0.5708-0.381-0.435-0.571-0.9514-0.571-1.5495v-9.4597c0-0.59803 0.19-1.0873 0.571-1.4679 0.435-0.43495 0.951-0.6524 1.549-0.6524h42.895c0.599 0 1.088 0.21745 1.468 0.6524 0.435 0.38057 0.652 0.86984 0.652 1.4679v9.8675c0 1.196-0.326 2.229-0.978 3.0989l-25.281 34.74c1.523-0.2714 3.072-0.4073 4.649-0.4073 3.915 0 7.503 0.3531 10.765 1.0599 3.316 0.6526 6.741 1.7396 10.275 3.262 1.25 0.5437 1.875 1.4677 1.875 2.7729v9.3781c0 0.8698-0.271 1.4677-0.815 1.7938-0.544 0.2719-1.223 0.2448-2.039-0.0813-4.077-1.5224-7.693-2.5823-10.846-3.1807-3.099-0.6521-6.497-0.9787-10.194-0.9787s-7.23 0.3266-10.764 0.9787c-3.48 0.6526-7.339 1.7125-11.58 3.1807-0.816 0.2719-1.495 0.2719-2.039 0-0.543-0.3266-0.815-0.8974-0.815-1.7125zm52.681-21.937c0-6.6323 1.277-12.64 3.832-18.022 2.556-5.4366 6.062-9.6772 10.52-12.722 4.513-3.0989 9.514-4.6483 15.005-4.6483s10.547 1.5494 15.005 4.6483c4.513 3.0445 8.047 7.2851 10.602 12.722 2.609 5.3823 3.914 11.39 3.914 18.022 0 6.6329-1.305 12.668-3.914 18.104-2.555 5.3823-6.089 9.6229-10.602 12.722-4.458 3.0442-9.459 4.5666-15.005 4.5666-5.545 0-10.492-1.5224-15.005-4.5666-4.458-3.099-7.964-7.3396-10.52-12.722-2.555-5.4365-3.832-11.471-3.832-18.104zm17.94 0c0 6.9047 0.979 12.233 2.936 15.984 1.958 3.6969 4.784 5.5454 8.481 5.5454s6.552-1.8485 8.563-5.5454c2.012-3.751 3.017-9.0792 3.017-15.984 0-6.9042-1.005-12.205-3.017-15.902-2.011-3.7514-4.866-5.627-8.563-5.627s-6.523 1.8756-8.481 5.627c-1.957 3.6968-2.936 8.9976-2.936 15.902zm49.745-31.804c0-0.59803 0.191-1.0873 0.572-1.4679 0.435-0.43495 0.951-0.6524 1.549-0.6524h10.764c0.598 0 1.088 0.19026 1.468 0.57083 0.435 0.38058 0.707 0.89704 0.816 1.5494l1.631 7.9918h0.652c1.468-3.6969 3.615-6.5511 6.443-8.5627 2.881-2.0116 6.252-3.0173 10.112-3.0173 4.131 0 7.692 1.0873 10.682 3.2619 3.045 2.1747 5.383 5.2736 7.014 9.2966 1.631 4.0232 2.446 8.7802 2.446 14.271v40.367c0 0.5979-0.217 1.1141-0.652 1.549-0.38 0.3807-0.87 0.5708-1.468 0.5708h-13.048c-0.598 0-1.114-0.1901-1.549-0.5708-0.381-0.4349-0.571-0.9511-0.571-1.549v-39.063c0-3.9688-0.816-7.0131-2.447-9.1334-1.631-2.1202-3.941-3.1804-6.931-3.1804-3.317 0-5.845 1.2504-7.584 3.7513-1.74 2.5008-2.61 6.1161-2.61 10.846v36.779c0 0.5979-0.217 1.1141-0.652 1.549-0.381 0.3807-0.87 0.5708-1.468 0.5708h-13.048c-0.598 0-1.114-0.1901-1.549-0.5708-0.381-0.4349-0.572-0.9511-0.572-1.549z" fill="#171d27"/>
    <path id="Path" d="m45.343 78.693c-1.033 0.8157-1.2505 2.1745-0.6524 4.0776 0.5436 1.6855 1.8212 3.7782 3.8328 6.2792 8.1004 10.004 17.75 18.321 28.95 24.954s23.188 11.526 35.964 14.679c12.83 3.207 25.932 4.811 39.306 4.811 17.126 0 33.436-2.5 48.93-7.502 15.494-4.948 28.434-11.907 38.818-20.877 3.642-3.207 5.464-5.7626 5.464-7.6658 0-0.7067-0.299-1.4135-0.897-2.1203-0.816-0.8151-1.795-1.087-2.936-0.8151-1.142 0.2714-2.746 0.9511-4.812 2.0385-9.949 5.2197-22.072 9.3777-36.371 12.477-14.243 3.154-29.113 4.73-44.607 4.73-19.191 0-37.73-2.609-55.617-7.829-17.886-5.219-33.734-13.374-47.543-24.464-2.0115-1.5765-3.6427-2.5828-4.893-3.0177-1.196-0.4349-2.1746-0.3531-2.9357 0.2448z" fill="#ff6201"/>
    <path id="path6" d="m226.54 82.775c-1.142 1.0875-1.441 2.2292-0.897 3.4256 0.38 0.8697 1.114 1.3588 2.202 1.4677 1.087 0.163 2.636 0.0542 4.648-0.3261 3.262-0.7067 6.66-1.1963 10.193-1.4682 3.534-0.2172 6.606-0.163 9.216 0.163 2.61 0.3807 4.24 1.0333 4.893 1.9573 0.979 1.4682 0.625 4.5667-1.061 9.2969-1.63 4.7297-3.859 9.3237-6.687 13.782-1.087 1.794-1.739 3.207-1.957 4.241-0.217 1.033 0.055 1.902 0.816 2.609 0.489 0.489 1.033 0.734 1.631 0.734 1.577 0 3.86-1.386 6.85-4.159 5.382-4.675 9.16-10.221 11.336-16.636 1.195-3.3166 1.929-6.7958 2.201-10.438 0.272-3.6422-0.136-6.2521-1.223-7.8287-1.033-1.5224-3.317-2.7729-6.85-3.751-3.48-0.9787-6.986-1.4683-10.52-1.4683-6.905 0-13.456 1.6313-19.653 4.8933-2.284 1.2505-3.996 2.4192-5.138 3.5062z" fill="#ff6201"/>
  </g>
</svg>
