<svg version="1.2" xmlns="http://www.w3.org/2000/svg" viewBox="0 0 1540 1584" width="1540" height="1584">
	<title>l3 harris-svg</title>
	<style>
		.s0 { fill: #ff000a } 
	</style>
	<path id="Layer" fill-rule="evenodd" class="s0" d="m1000.9 1583.8h-462c-4.2 0-8.5 0-12.8-4.4l-372.1-286c-4.3-4.4-8.6-8.8-8.6-13.2l-145.4-461.9v-13.2l145.4-501.5c0-4.4 4.3-8.8 8.6-13.2l380.7-286c4.2-4.4 8.5-4.4 12.8-4.4h444.8c4.3 0 8.6 0 12.9 4.4l380.7 286c4.2 4.4 8.5 8.8 8.5 13.2l145.5 497.1v13.2l-141.2 466.3c0 4.4-4.3 8.8-8.6 13.2l-372.1 286c-8.5 4.4-12.8 4.4-17.1 4.4zm-440.6-48.4h380.7c-149.7-149.6-299.4-281.6-453.4-400.4 12.9 127.6 38.5 264 72.7 400.4zm-55.6-448.7c166.8 123.1 320.8 263.9 483.4 422.3q13.7-75.2 24.8-150.8 11.2-75.6 19.7-151.6 8.6-75.9 14.6-152.2 5.9-76.2 9.3-152.5c-205.3 44-397.8 110-551.8 184.8zm594.6-162.8c-8.6 184.8-30 378.3-64.2 576.3l308-233.2c-72.7-140.8-149.7-255.1-243.8-343.1zm-894 347.5l295.2 224.4c-30-127.6-51.4-255.2-64.2-378.4-89.8 48.4-166.8 101.2-231 154zm-141.1-409.1l115.4 369.5c64.2-52.8 141.2-105.6 231-153.9-115.5-79.2-226.7-154-346.4-215.6zm1065 22c89.9 88 171.1 193.6 239.6 325.5l115.5-369.5c-115.5 4.4-235.3 22-355.1 44zm-658.7-321.2c-12.8 154-12.8 316.8 4.3 479.6 158.3-74.8 346.5-140.8 547.5-184.8-119.8-92.4-243.8-149.6-372.1-211.2-59.9-26.4-119.8-52.8-179.7-83.6zm-406.3 242q186 99 359.3 224.4c-12.9-158.4-12.9-312.4-4.3-466.4-136.9 66-256.7 149.6-355 242zm1018-404.8c17.1 140.8 21.4 290.4 21.4 435.6 124-26.4 248-44 363.5-52.8-115.5-140.8-239.5-264-384.9-382.8zm-573.2 123.2c51.3 26.4 102.7 48.4 162.5 74.8 128.4 57.2 256.7 118.8 385 215.6 0-149.6-4.3-299.2-25.7-444.4-192.4 39.6-367.8 88-521.8 154zm-329.4-167.1l-106.9 373.9c89.8-79.2 201.1-149.6 325.1-211.2-85.6-48.4-154-101.2-218.2-162.7zm932.5 4.4c128.3 101.1 243.8 215.5 346.5 338.7l-102.7-365.1zm-551.8-299.2c-38.5 136.4-68.4 277.2-85.5 422.3 154-66 325.1-118.7 513.3-149.5-115.5-92.4-252.4-176-427.8-272.8zm-355 250.8c64.2 66 136.9 118.7 222.4 171.5 12.9-131.9 38.5-263.9 72.8-391.5 0 0-295.2 220-295.2 220zm825.6-228.8c17.1 74.8 29.9 154 42.7 233.2q28.7-5 57.5-9.1 28.8-4.1 57.6-7.4 28.9-3.3 57.9-5.8 29-2.5 58-4.1zm-389.2-35.2c145.4 83.6 269.4 162.7 376.4 241.9-12.9-79.2-25.7-162.7-47.1-241.9z"/>
</svg>