<svg style="max-height: 500px" xml:space="preserve" xmlns:xlink="http://www.w3.org/1999/xlink" xmlns="http://www.w3.org/2000/svg" version="1.1" viewBox="0 0 222.75 217.11650485436894" width="222.75" height="217.11650485436894"><g id="LL_Logo_white"><path style="fill:#092f56;" d="M318.488,93.05l-75.575,0l-0,-5.504l2.4,-0c9.024,-0 11.695,-3.213 11.695,-10.129l0,-56.413c0,-8.3 -4.779,-10.154 -11.137,-10.154l-2.675,0l-0,-5.508l47.787,-0l0,5.508l-4.07,0c-7.325,0 -10.434,3.258 -10.434,9.871l0,58.121c0,5.196 1.55,6.458 7.046,6.458l17.904,0c9.442,0 12.263,-4.642 21.709,-16.754l5.65,-0l-10.3,24.504" id="Fill-4"/><path style="fill:#092f56;" d="M332.546,5.342l44.837,-0l0,5.508l-2.408,0c-7.608,0 -10.696,3.258 -10.696,10.571l0,55.862c0,6.884 2.379,10.263 10.996,10.263l2.108,-0l0,5.504l-44.837,0l-0,-5.504l1.979,-0c7.475,-0 10.292,-3.508 10.292,-9.713l-0,-56.412c-0,-7.313 -2.529,-10.571 -10.425,-10.571l-1.846,0l-0,-5.508" id="Fill-5"/><path style="fill:#092f56;" d="M407.938,76.129c-0,8.625 2.691,11.417 13.954,11.417l-0,5.504l-34.104,0l-0,-5.504l0.833,-0c8.604,-0 10.733,-3.092 10.733,-8.871l0,-64.733c-3.108,-2.08 -6.916,-3.092 -11.287,-3.092l-0,-5.508l29.037,-0l57.534,60.1l-0,-42.596c-0,-10.142 -2.117,-11.996 -13.4,-11.996l-1.413,-0l0,-5.508l36.387,-0l0,5.508l-1.412,-0c-8.758,-0 -11.542,1.854 -11.542,7.192l0,75.425l-7.771,-0l-67.55,-70.621l0,53.283" id="Fill-6"/><path style="fill:#092f56;" d="M596.033,67.842c-1.129,7.483 -4.508,18.312 -7.87,25.625c-2.271,-0.7 -5.088,-0.975 -8.338,-0.975c-6.633,-0 -13.675,2.533 -24.25,2.533c-28.908,0 -51.321,-20.025 -51.321,-45.517c0,-25.95 23.821,-46.258 53.996,-46.258c14.679,0 24.25,5.779 27.096,5.779c1.117,0 1.962,-0.429 2.817,-1.429l3.52,0l1.259,24.7l-5.513,0c-4.5,-13.983 -14.5,-21.879 -28.037,-21.879c-20.171,-0 -34.134,15.242 -34.134,37.529c0,22.713 15.521,40.175 35.675,40.175c12.971,0 23.688,-7.467 29.463,-20.283l5.637,-0" id="Fill-7"/><path style="fill:#092f56;" d="M663.258,88.996c19.588,-0 28.755,-16.958 28.755,-36.383c-0,-22.7 -11.296,-43.846 -32.713,-43.846c-17.925,-0 -29.596,13.821 -29.596,35.083c0,26.954 13.671,45.146 33.554,45.146Zm-0.575,-86.304c29.475,-0 50.342,18.466 50.342,44.816c0,25.105 -19.321,47.517 -53.017,47.517c-32.437,0 -51.337,-20.712 -51.337,-44.417c-0,-27.904 22.567,-47.916 54.012,-47.916Z" id="Fill-8"/><path style="fill:#092f56;" d="M796.746,93.05l-75.575,0l-0,-5.504l2.408,-0c9.017,-0 11.704,-3.213 11.704,-10.129l0,-56.413c0,-8.3 -4.8,-10.154 -11.154,-10.154l-2.675,0l0,-5.508l47.804,-0l0,5.508l-4.087,0c-7.342,0 -10.446,3.258 -10.446,9.871l0,58.121c0,5.196 1.558,6.458 7.063,6.458l17.908,0c9.442,0 12.271,-4.642 21.721,-16.754l5.629,-0l-10.3,24.504" id="Fill-9"/><path style="fill:#092f56;" d="M831.029,76.129c0,8.625 2.692,11.417 13.963,11.417l-0,5.504l-34.121,0l-0,-5.504l0.825,-0c8.633,-0 10.737,-3.092 10.737,-8.871l0,-64.733c-3.096,-2.08 -6.908,-3.092 -11.27,-3.092l-0,-5.508l29.05,-0l57.516,60.1l0,-42.596c0,-10.142 -2.133,-11.996 -13.416,-11.996l-1.375,-0l-0,-5.508l36.375,-0l-0,5.508l-1.413,-0c-8.758,-0 -11.562,1.854 -11.562,7.192l-0,75.425l-7.759,-0l-67.55,-70.621l0,53.283" id="Fill-10"/><path style="fill:#092f56;" d="M1046.38,93.05l-75.566,0l-0,-5.504l2.387,-0c9.017,-0 11.709,-3.213 11.709,-10.129l-0,-56.413c-0,-8.3 -4.771,-10.154 -11.125,-10.154l-2.675,0l-0,-5.508l47.775,-0l-0,5.508l-4.063,0c-7.35,0 -10.454,3.258 -10.454,9.871l-0,58.121c-0,5.196 1.554,6.458 7.058,6.458l17.913,0c9.458,0 12.258,-4.642 21.7,-16.754l5.625,-0l-10.284,24.504" id="Fill-11"/><path style="fill:#092f56;" d="M1104.43,19.767l-11.85,32.987l24.829,0l-12.979,-32.987Zm-14.642,40.737l-5.949,16.471c-2.534,7.192 -2.388,10.571 11.15,10.571l1.829,-0l-0,5.504l-37.359,0l0,-5.504l2.096,-0c6.784,-0 10.292,-3.092 13.825,-12.975l24.129,-67.242l-1.558,-4.079l20.871,-0l28.196,71.646c3.671,9.271 6.771,12.104 14.083,12.65l0,5.504l-45.817,-0l0,-5.504l4.938,-0c8.596,-0 9.858,-3.792 7.05,-10.692l-6.634,-16.35l-30.85,0Z" id="Fill-12"/><path style="fill:#092f56;" d="M1206.24,74.042c-0,10.291 3.804,12.696 12.837,12.696c15.788,-0 19.742,-10.167 19.742,-19.63c-0,-8.445 -3.954,-20.991 -22.254,-20.991c-2.709,-0 -8.209,0.275 -10.325,0.416l-0,27.509Zm-0,-33.546c3.108,0.117 8.187,0.258 10.875,0.258c14.096,0 17.616,-7.625 17.616,-14.817c0,-8.037 -3.958,-17.17 -21.025,-17.17c-2.945,-0 -5.066,0.095 -7.466,0.416l-0,31.313Zm-19.454,-17.221c-0,-10.867 -1.546,-12.425 -12.271,-12.425l-3.542,-0l0,-5.508c3.542,-0.092 10.3,-0.688 17.787,-1.117c8.48,-0.417 16.788,-0.975 22.842,-0.975c17.613,-0 31.167,2.404 38.784,10c3.512,3.533 5.358,8.467 5.358,12.804c-0,8.621 -5.646,13.975 -17.359,16.521l0,0.296c13.667,2.962 22.317,12.262 22.317,23.687c0,14.38 -13.129,26.492 -36.421,26.492l-54.541,0l-0,-5.504c13.787,-0 17.045,-3.508 17.045,-11.829l0,-52.442Z" id="Fill-13"/><path style="fill:#092f56;" d="M1328.65,88.996c19.588,-0 28.767,-16.958 28.767,-36.383c-0,-22.7 -11.288,-43.846 -32.7,-43.846c-17.938,-0 -29.634,13.821 -29.634,35.083c0,26.954 13.671,45.146 33.567,45.146Zm-0.554,-86.304c29.458,-0 50.329,18.466 50.329,44.816c0,25.105 -19.342,47.517 -53.021,47.517c-32.433,0 -51.3,-20.712 -51.3,-44.417c0,-27.904 22.525,-47.916 53.992,-47.916Z" id="Fill-14"/><path style="fill:#092f56;" d="M1419.83,49.913l5.509,-0.001c17.033,0 26.908,-5.22 26.908,-20.287c0,-14.958 -11.412,-20.325 -25.087,-20.325l-7.33,-0l0,40.612Zm0,27.371c0,7.171 3.096,10.263 11.155,10.263l4.212,-0l0,5.504l-49.35,-0l0,-5.504l2.233,-0c8.638,-0 12.284,-2.092 12.284,-10.263l-0,-55.696c-0,-6.775 -1.809,-10.737 -11.267,-10.737l-2.979,-0l-0,-5.508c7.041,-0.413 12.437,-0.688 18.192,-1.117c7.912,-0.533 18.05,-0.975 23.108,-0.975c20.775,-0 32.033,2.662 39.075,9.742c4.658,4.633 6.779,9.987 6.779,16.05c0,10.725 -7.75,19.179 -20.862,22.687c9.287,7.792 14.212,18.933 24.229,28.929c5.8,5.771 9.733,7.467 18.612,8.338l0,5.496c-3.091,0.116 -4.496,0.116 -8.737,0.116c-17.471,0 -24.667,-2.529 -31.284,-9.154c-7.037,-7.041 -15.22,-21.867 -24.245,-29.625l-11.155,0l0,21.454Z" id="Fill-15"/><path style="fill:#092f56;" d="M1547.03,19.767l-11.85,32.987l24.838,0l-12.988,-32.987Zm-14.65,40.737l-5.937,16.471c-2.542,7.192 -2.392,10.571 11.154,10.571l1.833,-0l0,5.504l-37.375,0l0,-5.504l2.117,-0c6.75,-0 10.312,-3.092 13.846,-12.975l24.075,-67.242l-1.559,-4.079l20.892,-0l28.175,71.646c3.671,9.271 6.767,12.104 14.129,12.65l0,5.504l-45.841,-0l-0.001,-5.504l4.942,-0c8.596,-0 9.833,-3.792 7.05,-10.692l-6.608,-16.35l-30.892,0Z" id="Fill-16"/><path style="fill:#092f56;" d="M1659.58,76.975c0,7.358 2.259,10.571 12.275,10.571l3.388,-0l-0,5.504l-50.758,0l-0,-5.504l4.804,-0c7.729,-0 10.845,-3.092 10.845,-10.571l0,-64.271l-16.637,0c-10.883,0 -12.546,1.663 -15.242,16.608l-5.75,0l2.517,-26.345l4.496,-0c1.146,0.983 1.875,1.687 2.683,1.962c1.013,0.321 2.125,0.413 4.113,0.413l67.133,-0c3.792,-0 4.483,-0.271 6.746,-2.375l4.512,-0l2.513,26.345l-5.771,0c-2.663,-14.791 -4.35,-16.608 -15.208,-16.608l-16.659,0l0,64.271" id="Fill-17"/><path style="fill:#092f56;" d="M1762.65,88.996c19.609,-0 28.775,-16.958 28.775,-36.383c0,-22.7 -11.271,-43.846 -32.729,-43.846c-17.892,-0 -29.612,13.821 -29.612,35.083c-0,26.954 13.708,45.146 33.566,45.146Zm-0.533,-86.304c29.446,-0 50.325,18.466 50.325,44.816c-0,25.105 -19.313,47.517 -53.038,47.517c-32.412,0 -51.3,-20.712 -51.3,-44.417c0,-27.904 22.529,-47.916 54.013,-47.916Z" id="Fill-18"/><path style="fill:#092f56;" d="M1853.85,49.913l5.488,-0.001c17.062,0 26.92,-5.22 26.92,-20.287c0,-14.958 -11.416,-20.325 -25.095,-20.325l-7.313,-0l0,40.612Zm0,27.371c0,7.171 3.1,10.263 11.117,10.263l4.233,-0l0,5.504l-49.358,-0l-0,-5.504l2.267,-0c8.62,-0 12.25,-2.092 12.25,-10.263l-0,-55.696c-0,-6.775 -1.817,-10.737 -11.25,-10.737l-2.942,-0l-0,-5.508c7.016,-0.413 12.375,-0.688 18.158,-1.117c7.879,-0.533 18.063,-0.975 23.138,-0.975c20.704,-0 31.991,2.662 39.046,9.742c4.67,4.633 6.766,9.987 6.766,16.05c0,10.725 -7.758,19.179 -20.862,22.687c9.3,7.792 14.233,18.933 24.254,28.929c5.775,5.771 9.742,7.467 18.608,8.338l0,5.496c-3.116,0.116 -4.516,0.116 -8.733,0.116c-17.475,0 -24.7,-2.529 -31.296,-9.154c-7.079,-7.041 -15.237,-21.867 -24.279,-29.625l-11.117,0l0,21.454Z" id="Fill-19"/><path style="fill:#092f56;" d="M1985.22,77.142c-0,6.754 2.137,10.404 12.279,10.404l2.108,-0l0,5.504l-48.058,0l0,-5.504l3.513,-0c8.462,-0 10.754,-3.792 10.754,-10.129l-0,-19.596l-30.338,-40.338c-4.096,-5.362 -5.796,-6.633 -12.833,-6.633l-0.979,0l-0,-5.508l45.958,-0l0,5.508l-1.7,0c-8.154,0 -9.317,3.4 -6.35,7.192l22.563,29.754l16.354,-25.65c3.662,-5.775 4.796,-11.296 -5.079,-11.296l-1.671,0l-0,-5.508l33.258,-0l0,5.508c-8.171,0.596 -10.558,2.142 -15.642,9.871l-24.137,37.1l-0,19.321" id="Fill-20"/><path style="fill:#092f56;" d="M323.921,205.442l-26.563,-0l0,-5.013l1.63,0c2.779,0 4.745,-0.533 5.687,-1.566c0.592,-0.63 0.829,-1.496 0.742,-2.65l-2.234,-34.555l-20.466,43.784l-4.154,-0l-20.98,-43.863l-2.079,34.796c-0.075,1.167 0.146,2.033 0.675,2.6c0.788,0.867 2.371,1.354 5,1.454l1.579,0.054l0,4.959l-22.137,-0l-0,-5.013l1.646,0c5.295,0 5.808,-0.229 6.229,-8.141l2.183,-35.28c0.346,-5.779 0.242,-5.962 -3.9,-6.216l-1.542,-0.084l0,-4.808l16.359,0l20.817,43.479l20.7,-43.479l16.008,0l-0,4.783l-1.513,0.109c-4.562,0.371 -4.558,0.416 -4.47,1.775l2.895,41.05c0.446,6.812 0.446,6.812 6.246,6.812l1.642,0l-0,5.013" id="Fill-21"/><path style="fill:#092f56;" d="M347.675,179.571l7.471,-0l-3.8,-10.063l-3.671,10.063Zm30.242,25.871l-22.692,-0l0,-4.625l3.487,-0c3.059,-0 3.7,-0.325 3.825,-0.442c0.03,-1.004 -0.283,-1.754 -0.525,-2.362l-4.441,-12.051l-12.3,0l-4.025,10.892c-0.321,0.796 -0.979,2.488 -0.979,2.983c-0,0.842 2.541,0.98 4.062,0.98l2.792,-0l-0,4.625l-19.6,-0l-0,-4.609l1.621,-0.016c3.566,-0.075 3.95,-0.084 6.095,-5.925l12.625,-34.429l-1.312,-3.255l9.717,0l15.141,40.209c1.142,3.066 1.938,3.4 4.867,3.4l1.642,-0l-0,4.625Z" id="Fill-22"/><path style="fill:#092f56;" d="M396.383,206.554c-2.808,0 -5.995,-0.875 -8.104,-1.462c-0.804,-0.225 -1.429,-0.417 -1.754,-0.446l-0.487,0.746l-3.488,0.05l-1.946,-14.03l4.529,0l0.288,1.275c1.258,5.28 5.296,8.675 10.325,8.675c3.896,0 8.079,-2.087 8.079,-6.679c0,-3.921 -4.717,-6.912 -9.725,-10.054c-6.046,-3.808 -12.9,-8.15 -12.9,-15.529c0,-6.763 6.096,-11.892 14.196,-11.892c3.875,0 5.946,0.746 7.458,1.271c0.875,0.325 1.446,0.508 2.125,0.508l0.5,-0.662l3.338,-0.038l1.654,12.259l-4.213,-0l-0.412,-1.05c-1.729,-4.425 -5.579,-7.288 -9.808,-7.288c-3.742,0 -6.259,2 -6.259,4.992c0,3.775 4.592,6.625 9.446,9.65c6.179,3.829 13.188,8.196 13.188,16.037c-0,7.788 -6.892,13.667 -16.03,13.667" id="Fill-23"/><path style="fill:#092f56;" d="M433.108,206.554c-2.804,0 -5.995,-0.875 -8.116,-1.462c-0.796,-0.225 -1.421,-0.417 -1.729,-0.446l-0.496,0.746l-3.505,0.05l-1.929,-14.03l4.525,0l0.3,1.275c1.234,5.28 5.284,8.675 10.309,8.675c3.904,0 8.095,-2.087 8.095,-6.679c0,-3.921 -4.72,-6.912 -9.716,-10.054c-6.067,-3.808 -12.925,-8.15 -12.925,-15.529c-0,-6.763 6.112,-11.892 14.196,-11.892c3.891,0 5.945,0.746 7.462,1.271c0.871,0.325 1.442,0.508 2.138,0.508l0.483,-0.616l3.342,-0.084l1.629,12.259l-4.192,-0l-0.408,-1.05c-1.717,-4.425 -5.567,-7.288 -9.813,-7.288c-3.737,0 -6.254,2 -6.254,4.992c0,3.775 4.592,6.625 9.442,9.65c6.179,3.829 13.187,8.196 13.187,16.037c0,7.788 -6.891,13.667 -16.025,13.667" id="Fill-24"/><path style="fill:#092f56;" d="M470.838,179.571l7.466,-0l-3.804,-10.063l-3.663,10.063Zm30.234,25.871l-22.663,-0l0,-4.625l3.455,-0c3.075,-0 3.712,-0.325 3.841,-0.442c0.029,-1 -0.279,-1.742 -0.521,-2.354l-4.458,-12.058l-12.292,-0l-4.087,11.079c-0.317,0.804 -0.913,2.333 -0.917,2.796c0,0.841 2.538,0.979 4.054,0.979l2.78,-0l-0,4.625l-19.575,-0l-0,-4.609l1.616,-0.016c3.592,-0.075 3.963,-0.084 6.113,-5.925l12.6,-34.434l-1.279,-3.25l9.687,0l15.137,40.209c1.138,3.054 1.992,3.4 4.867,3.4l1.642,-0l-0,4.625Z" id="Fill-25"/><path style="fill:#092f56;" d="M526.817,206.554c-15.209,0 -26.25,-10.146 -26.25,-24.146c-0,-14.587 11.333,-25.2 26.958,-25.2c6.213,0 10.046,1.321 12.579,2.192c0.984,0.354 1.842,0.637 2.284,0.637l0.495,-0.612l0.8,0.2l2.575,0l0.863,13.521l-4.267,-0l-0.383,-1.096c-2.15,-6.033 -7.7,-9.779 -14.517,-9.779c-10.608,-0 -17.454,7.367 -17.454,18.746c0,11.479 8.004,20.487 18.225,20.487c6.988,0 12.142,-3.133 15.767,-9.596l0.466,-0.841l4.48,-0l-0.596,2.104c-0.975,3.375 -2.946,7.892 -4.688,10.712l-0.566,0.905l-1.071,-0.155c-1.884,-0.245 -3.492,0.134 -5.688,0.634c-2.454,0.579 -5.512,1.287 -10.012,1.287" id="Fill-26"/><path style="fill:#092f56;" d="M606.658,205.442l-23.245,-0l-0,-4.625l3.829,-0c3.537,-0 3.933,-0.759 3.933,-3.671l0,-12.667l-24.358,0l-0,11.788c-0,3.987 0.491,4.55 3.996,4.55l1.649,-0l0.209,2.966l-0,1.659l-20.979,-0l-0,-4.625l2.058,-0c3.546,-0 3.929,-0.734 3.929,-3.513l0,-31.012c0,-2.605 -0.283,-3.15 -3.554,-3.38l-1.525,-0.1l0,-4.525l20.071,0l-0,4.625l-1.642,0c-3.733,0 -4.212,0.196 -4.212,5.146l-0,10.617l24.358,0l0,-12.242c0,-2.658 -0.308,-3.521 -3.933,-3.521l-2.975,0l-0,-4.625l21.408,0l0,4.58l-1.583,0.045c-3.329,0.113 -3.788,0.613 -3.788,4.146l0,29.246c0,4.117 0.717,4.513 3.988,4.513l2.366,-0l0,4.625" id="Fill-27"/><path style="fill:#092f56;" d="M637.733,206.554c-13.375,0 -22.021,-7.612 -22.021,-19.379l0,-20.621c0,-3.271 -0.12,-3.562 -4.445,-3.642l-1.625,-0.02l-0,-4.605l21.416,0l0,4.625l-2.3,0c-3.258,0 -3.904,0.601 -3.904,3.521l0,19.575c0,8.905 4.983,13.6 14.408,13.6c6.592,0 14.442,-2.35 14.442,-13.654l0,-16.437c0,-6.092 -0.596,-6.379 -5.342,-6.604l-1.575,-0.067l0,-4.558l19.867,-0l0,4.604l-1.625,0.021c-3.721,0.075 -4.792,1.166 -4.792,4.85l0,19.05c0,9.095 -5.895,19.741 -22.504,19.741" id="Fill-28"/><path style="fill:#092f56;" d="M684.529,206.554c-2.812,0 -6.008,-0.875 -8.112,-1.471c-0.8,-0.22 -1.421,-0.408 -1.738,-0.437l-0.483,0.754l-3.504,0.042l-1.938,-14.029l4.496,-0l0.304,1.266c1.263,5.279 5.317,8.684 10.342,8.684c3.883,-0 8.087,-2.088 8.087,-6.68c0,-3.92 -4.725,-6.912 -9.72,-10.054c-6.05,-3.808 -12.905,-8.15 -12.905,-15.529c0,-6.762 6.084,-11.892 14.175,-11.892c3.884,0 5.955,0.746 7.467,1.271c0.871,0.325 1.442,0.509 2.117,0.509l0.496,-0.655l3.35,-0.045l1.62,12.258l-4.179,-0l-0.416,-1.05c-1.725,-4.425 -5.575,-7.288 -9.825,-7.288c-3.746,0 -6.263,2 -6.263,4.992c0,3.775 4.596,6.625 9.446,9.65c6.196,3.829 13.204,8.196 13.204,16.038c0,7.787 -6.887,13.666 -16.021,13.666" id="Fill-29"/><path style="fill:#092f56;" d="M742.633,205.442l-40.541,-0l-0,-4.625l3.604,-0c4.771,-0 4.983,-0.921 4.983,-4.138l0,-29.787c0,-3.213 -0.379,-3.98 -4.016,-3.98l-3.188,0l0,-4.625l37.042,0l0.745,13.105l-4.408,-0l-0.221,-1.384c-0.895,-5.875 -2.4,-5.875 -3.596,-5.875l-13.22,0l-0,14.05l10.962,0c1.234,0 2.129,0 2.446,-3.779l0.125,-1.508l4.504,-0l0,16.687l-4.454,0l-0.167,-1.471c-0.462,-4.112 -1.091,-4.112 -3.17,-4.112l-10.246,-0l-0,13.367c-0,2.241 0.325,2.241 2.162,2.241l10.842,0c3.696,0 4.866,-0.783 6.633,-6.791l0.338,-1.171l4.308,-0l-1.467,13.796" id="Fill-30"/><path style="fill:#092f56;" d="M783.146,205.442l-25.5,-0l-0,-4.625l4.258,-0c3.467,-0 3.938,-0.704 3.938,-3.513l-0,-33.171l-10.638,0c-1.246,0 -2.425,0 -3.525,6.434l-0.233,1.358l-4.475,0l1.462,-14.717l4.255,0l0.141,1.021c0.238,0.038 0.429,0.059 0.617,0.059l33.912,-0c0.288,-0 0.484,-0.021 0.613,-0.046l0.175,-1.034l4.216,0l1.438,14.717l-4.442,0l-0.233,-1.358c-1.1,-6.434 -2.279,-6.434 -3.521,-6.434l-10.633,0l-0,33.171c-0,2.809 0.462,3.513 3.933,3.513l4.242,-0l-0,4.625" id="Fill-31"/><path style="fill:#092f56;" d="M833.713,205.442l-25.471,-0l-0,-4.625l4.225,-0c3.487,-0 3.946,-0.704 3.946,-3.513l-0,-33.171l-10.634,0c-1.291,0 -2.421,0 -3.537,6.434l-0.242,1.358l-4.442,0l1.442,-14.717l4.242,0l0.154,1.017c0.233,0.042 0.442,0.063 0.617,0.063l33.9,-0c0.3,-0 0.495,-0.03 0.65,-0.046l0.154,-1.034l4.221,0l1.454,14.717l-4.479,0l-0.234,-1.358c-1.096,-6.434 -2.221,-6.434 -3.516,-6.434l-10.617,0l-0,33.171c-0,2.809 0.471,3.513 3.912,3.513l4.255,-0l-0,4.625" id="Fill-32"/><path style="fill:#092f56;" d="M864.113,206.554c-2.8,0 -5.98,-0.875 -8.084,-1.462c-0.817,-0.225 -1.429,-0.417 -1.754,-0.446l-0.492,0.746l-3.512,0.05l-1.921,-14.03l4.512,0l0.305,1.275c1.241,5.28 5.296,8.675 10.329,8.675c3.883,0 8.071,-2.087 8.071,-6.679c-0,-3.921 -4.721,-6.912 -9.713,-10.054c-6.046,-3.808 -12.912,-8.15 -12.912,-15.529c-0,-6.763 6.1,-11.892 14.179,-11.892c3.883,0 5.942,0.746 7.454,1.271c0.883,0.325 1.454,0.508 2.154,0.508l0.496,-0.675l3.346,-0.025l1.612,12.259l-4.179,-0l-0.404,-1.05c-1.725,-4.425 -5.592,-7.288 -9.842,-7.288c-3.729,0 -6.233,2 -6.233,4.992c0,3.775 4.583,6.625 9.433,9.65c6.188,3.829 13.188,8.196 13.188,16.037c-0,7.788 -6.883,13.667 -16.033,13.667" id="Fill-33"/><path style="fill:#092f56;" d="M942.967,205.442l-25.3,-0l-0,-4.95l1.566,-0.063c4.488,-0.216 5.2,-0.654 5.2,-6.167l0,-38.579c0,-3.87 -0.821,-4.662 -5.212,-4.891l-1.554,-0.071l-0,-4.954l25.3,-0l-0,5.025l-1.646,-0c-5.142,-0 -6.042,0.854 -6.042,5.683l0,38.425c0,4.417 0.721,5.529 6.042,5.529l1.646,0l-0,5.013" id="Fill-34"/><path style="fill:#092f56;" d="M999.454,205.908l-4.167,0l-34.212,-35.746l0,26.142c0,3.988 0.208,4.513 5.496,4.513l1.633,-0l0,4.625l-19.641,-0l-0,-4.625l1.641,-0c4.225,-0 4.421,-1.188 4.421,-3.071l0,-33.788c-1.167,-0.666 -2.542,-0.979 -4.317,-1.046l-1.596,-0.041l0,-4.584l13.43,0l30.821,32.18l-0,-23.967c-0,-2.942 -0,-3.454 -5.301,-3.588l-1.595,-0.033l-0,-4.592l19.775,0l-0,4.625l-1.65,0c-4.738,0 -4.738,0.634 -4.738,2.042l0,40.954" id="Fill-35"/><path style="fill:#092f56;" d="M1024.16,206.554c-2.792,0 -5.963,-0.875 -8.08,-1.462c-0.791,-0.225 -1.425,-0.417 -1.762,-0.446l-0.492,0.746l-3.504,0.05l-1.925,-14.03l4.517,0l0.283,1.275c1.254,5.28 5.3,8.675 10.329,8.675c3.9,0 8.079,-2.087 8.079,-6.679c0,-3.921 -4.733,-6.912 -9.712,-10.054c-6.063,-3.808 -12.921,-8.15 -12.921,-15.529c-0,-6.763 6.108,-11.892 14.208,-11.892c3.867,0 5.946,0.746 7.434,1.271c0.87,0.325 1.458,0.508 2.141,0.508l0.488,-0.675l3.362,-0.025l1.638,12.259l-4.209,-0l-0.408,-1.05c-1.729,-4.425 -5.567,-7.288 -9.829,-7.288c-3.742,0 -6.242,2 -6.242,4.992c0,3.775 4.584,6.625 9.438,9.65c6.171,3.829 13.171,8.196 13.171,16.037c-0,7.788 -6.871,13.667 -16.005,13.667" id="Fill-36"/><path style="fill:#092f56;" d="M1079.7,205.442l-25.496,-0l0,-4.625l4.238,-0c3.475,-0 3.937,-0.704 3.937,-3.513l0,-33.171l-10.612,0c-1.259,0 -2.434,0 -3.571,6.434l-0.234,1.358l-4.45,0l1.459,-14.717l4.296,0l0.129,1.021c0.221,0.038 0.416,0.059 0.6,0.059l33.908,-0c0.263,-0 0.471,-0.021 0.613,-0.046l0.145,-1.034l4.255,0l1.429,14.717l-4.446,0l-0.229,-1.358c-1.104,-6.434 -2.234,-6.434 -3.529,-6.434l-10.621,0l-0,33.171c-0,2.809 0.458,3.513 3.904,3.513l4.275,-0l-0,4.625" id="Fill-37"/><path style="fill:#092f56;" d="M1114.82,205.442l-20.425,-0l-0,-4.554l1.558,-0.071c3.313,-0.175 3.742,-0.429 3.742,-4.434l-0,-30.012c-0,-2.65 -0.354,-3.292 -3.742,-3.459l-1.558,-0.066l-0,-4.559l20.425,0l-0,4.625l-1.658,0c-3.8,0 -4.346,0.513 -4.346,4.08l-0,29.895c-0,3.238 0.383,3.93 4.346,3.93l1.658,-0l-0,4.625" id="Fill-38"/><path style="fill:#092f56;" d="M1154.96,205.442l-25.5,-0l0,-4.625l4.284,-0c3.466,-0 3.925,-0.704 3.925,-3.513l-0,-33.171l-10.642,0c-1.304,0 -2.429,0 -3.529,6.434l-0.238,1.358l-4.454,0l1.442,-14.717l4.242,0l0.141,1.017c0.233,0.042 0.438,0.063 0.633,0.063l33.921,-0c0.279,-0 0.479,-0.021 0.596,-0.046l0.167,-1.034l4.233,0l1.463,14.717l-4.438,0l-0.233,-1.358c-1.117,-6.434 -2.304,-6.434 -3.521,-6.434l-10.663,0l0,33.171c0,2.809 0.459,3.513 3.926,3.513l4.245,-0l0,4.625" id="Fill-39"/><path style="fill:#092f56;" d="M1196.73,206.554c-13.358,0 -22.008,-7.612 -22.008,-19.379l-0,-20.621c-0,-3.271 -0.117,-3.562 -4.433,-3.642l-1.613,-0.02l0,-4.605l21.392,0l-0,4.625l-2.279,0c-3.259,0 -3.921,0.601 -3.921,3.521l-0,19.575c-0,8.905 4.991,13.6 14.425,13.6c6.558,0 14.416,-2.35 14.416,-13.654l0,-16.437c0,-6.092 -0.612,-6.379 -5.341,-6.604l-1.559,-0.067l0,-4.558l19.838,-0l-0,4.604l-1.604,0.021c-3.713,0.075 -4.788,1.166 -4.788,4.85l0,19.05c0,9.095 -5.904,19.741 -22.525,19.741" id="Fill-40"/><path style="fill:#092f56;" d="M1264.65,205.442l-25.525,-0l0,-4.625l4.279,-0c3.467,-0 3.925,-0.704 3.925,-3.513l0,-33.171l-10.645,0c-1.23,0 -2.421,0 -3.546,6.442l-0.242,1.35l-4.433,0l1.441,-14.717l4.225,0l0.159,1.017c0.2,0.033 0.408,0.063 0.637,0.063l33.917,-0c0.275,-0 0.483,-0.03 0.604,-0.046l0.171,-1.034l4.254,0l1.446,14.717l-4.496,0l-0.225,-1.367c-1.075,-6.425 -2.275,-6.425 -3.504,-6.425l-10.629,0l-0,33.171c-0,2.809 0.458,3.513 3.925,3.513l4.262,-0l0,4.625" id="Fill-41"/><path style="fill:#092f56;" d="M1317.65,205.442l-40.546,-0l0,-4.625l3.6,-0c4.98,-0 4.98,-1.125 4.98,-4.138l-0,-29.787c-0,-3.213 -0.35,-3.98 -3.98,-3.98l-3.187,0l-0,-4.625l37.025,0l0.75,13.105l-4.396,-0l-0.217,-1.384c-0.929,-5.875 -2.404,-5.875 -3.62,-5.875l-13.221,0l-0,14.05l10.995,0c1.171,0 2.117,0 2.434,-3.779l0.142,-1.508l4.479,-0l-0,16.687l-4.446,0l-0.175,-1.462c-0.467,-4.121 -1.092,-4.121 -3.15,-4.121l-10.279,-0l-0,13.367c-0,2.241 0.383,2.241 2.158,2.241l10.858,0c3.7,0 4.859,-0.783 6.625,-6.791l0.359,-1.171l4.321,-0l-1.509,13.796" id="Fill-42"/><path style="fill:#092f56;" d="M1367.67,162.271c-11.521,-0 -15.708,10.987 -15.708,18.383c-0,11.883 8.012,20.85 18.671,20.85c10.545,0 15.354,-9.6 15.354,-18.5c-0,-12.204 -7.521,-20.733 -18.317,-20.733Zm1.5,44.283c-15.45,0 -27.104,-10.179 -27.104,-23.704c-0,-14.863 11.529,-25.642 27.458,-25.642c14.775,0 26.363,10.3 26.363,23.446c-0,14.521 -11.746,25.9 -26.717,25.9Z" id="Fill-43"/><path style="fill:#092f56;" d="M1420.56,205.442l-20.408,-0l0,-4.534l1.533,-0.091c3.375,-0.221 3.642,-0.242 3.642,-5.267l0,-27.633c0,-4.329 -0.225,-4.938 -3.671,-5.005l-1.608,-0.02l-0,-4.605l34.829,0l0,11.621l-4.454,0l-0.017,-1.608c-0.05,-3.346 -0.879,-4.167 -4.196,-4.167l-11.787,0l-0,13.267l12.325,0c1.212,0 2.3,-0.225 2.441,-2.958l0.105,-1.546l4.395,-0l0,15.687l-4.429,0l-0.071,-1.583c-0.1,-3.446 -1.037,-3.779 -3.345,-3.779l-11.421,-0l-0,13.821c-0,2.895 -0,3.775 4.508,3.775l1.629,-0l0,4.625" id="Fill-44"/><path style="fill:#092f56;" d="M1516.2,205.442l-31.813,-0l0,-5.013l4.984,0c4.8,0 5.512,-1.125 5.512,-5.008l0,-43.079l-14.116,-0c-2.192,-0 -3.605,0.596 -5.005,8.687l-0.237,1.363l-4.821,-0l1.775,-17.975l4.538,-0l0.262,1.32c0.313,-0.033 0.754,0.03 1.221,0.03l43.592,-0c0.845,-0 1.245,-0.138 1.312,-0.213l0.229,-1.367l1.275,0.23l3.213,-0l1.8,17.975l-4.859,-0l-0.229,-1.367c-1.375,-8.075 -2.858,-8.683 -5.004,-8.683l-14.112,-0l-0,43.079c-0,3.883 0.716,5.008 5.491,5.008l4.992,0l-0,5.013" id="Fill-45"/><path style="fill:#092f56;" d="M1573.67,205.442l-40.584,-0l0,-4.625l3.638,-0c4.962,-0 4.962,-1.054 4.962,-4.138l0,-29.787c0,-3.213 -0.354,-3.98 -3.987,-3.98l-3.192,0l0,-4.625l37,0l0.8,13.105l-4.4,-0l-0.212,-1.38c-0.95,-5.879 -2.421,-5.879 -3.629,-5.879l-13.221,0l-0,14.05l10.954,0c1.254,0 2.158,0 2.442,-3.775l0.133,-1.512l4.517,-0l-0,16.687l-4.475,0l-0.167,-1.471c-0.442,-4.112 -1.121,-4.112 -3.134,-4.112l-10.27,-0l-0,13.367c-0,2.241 0.341,2.241 2.15,2.241l10.841,0c3.709,0 4.863,-0.783 6.625,-6.791l0.355,-1.171l4.283,-0l-1.429,13.796" id="Fill-46"/><path style="fill:#092f56;" d="M1605.89,206.554c-15.242,0 -26.284,-10.146 -26.284,-24.146c0,-14.587 11.346,-25.2 26.959,-25.2c6.216,0 10.033,1.321 12.587,2.192c0.979,0.354 1.838,0.637 2.288,0.637l0.512,-0.566l0.763,0.154l2.612,0l0.829,13.521l-4.225,-0l-0.396,-1.096c-2.166,-6.033 -7.725,-9.779 -14.525,-9.779c-10.629,-0 -17.483,7.367 -17.483,18.746c0,11.479 8.029,20.487 18.233,20.487c6.988,0 12.138,-3.133 15.792,-9.6l0.471,-0.837l4.458,-0l-0.591,2.104c-0.984,3.379 -2.963,7.891 -4.7,10.712l-0.55,0.904l-1.067,-0.154c-1.908,-0.246 -3.5,0.125 -5.7,0.634c-2.446,0.579 -5.508,1.287 -9.983,1.287" id="Fill-47"/><path style="fill:#092f56;" d="M1685.72,205.442l-23.258,-0l-0,-4.625l3.812,-0c3.558,-0 3.933,-0.759 3.933,-3.671l0,-12.667l-24.325,0l0,11.788c0,3.987 0.48,4.55 3.967,4.55l1.625,-0l0.242,2.966l-0,1.659l-20.979,-0l-0,-4.625l2.066,-0c3.542,-0 3.934,-0.734 3.934,-3.513l-0,-31.012c-0,-2.571 -0.3,-3.15 -3.55,-3.38l-1.525,-0.1l-0,-4.525l20.054,0l-0,4.625l-1.629,0c-3.734,0 -4.205,0.196 -4.205,5.146l0,10.617l24.325,0l0,-12.242c0,-2.658 -0.304,-3.521 -3.933,-3.521l-2.946,0l0,-4.625l21.354,0l0,4.58l-1.583,0.045c-3.3,0.113 -3.754,0.613 -3.754,4.146l-0,29.246c-0,4.117 0.704,4.513 4.008,4.513l2.367,-0l-0,4.625" id="Fill-48"/><path style="fill:#092f56;" d="M1740.47,205.908l-4.175,0l-34.155,-35.746l0,26.142c0,3.829 0,4.513 5.442,4.513l1.654,-0l0,4.625l-19.612,-0l-0,-4.625l1.625,-0c4.154,-0 4.425,-1.184 4.425,-3.071l-0,-33.788c-1.175,-0.675 -2.521,-0.979 -4.35,-1.046l-1.584,-0.041l0,-4.584l13.4,0l30.867,32.18l0,-23.967c0,-2.942 0,-3.454 -5.283,-3.588l-1.625,-0.033l-0,-4.592l19.787,0l0,4.625l-1.633,0c-4.783,0 -4.783,0.634 -4.783,2.042l-0,40.954" id="Fill-49"/><path style="fill:#092f56;" d="M1774.93,162.271c-11.496,-0 -15.7,10.987 -15.7,18.383c0,11.883 8.021,20.85 18.638,20.85c10.566,0 15.383,-9.6 15.383,-18.5c0,-12.204 -7.533,-20.733 -18.321,-20.733Zm1.484,44.283c-15.455,0 -27.096,-10.179 -27.096,-23.704c-0,-14.863 11.541,-25.642 27.433,-25.642c14.817,0 26.388,10.3 26.388,23.446c-0,14.758 -11.488,25.9 -26.725,25.9Z" id="Fill-50"/><path style="fill:#092f56;" d="M1839.83,205.442l-34.137,-0l-0,-4.625l3.958,-0c2.3,-0 2.813,-0.255 2.813,-3.017l-0,-31.246c-0,-2.754 -0.321,-3.642 -3.942,-3.642l-2.617,0l0,-4.625l24.104,0l0,4.625l-4.279,0c-4.141,0 -4.141,0.188 -4.141,3.225l-0,32.53c-0,0.637 0.12,0.804 0.129,0.812c-0,0 0.208,0.129 1.05,0.129l10.391,0c3.171,0 4.025,-0.891 8.517,-7.079l0.488,-0.675l4.829,0l-7.163,13.588" id="Fill-51"/><path style="fill:#092f56;" d="M1874.35,162.271c-11.504,-0 -15.687,10.987 -15.687,18.383c-0,11.883 8.037,20.85 18.662,20.85c10.542,0 15.354,-9.6 15.354,-18.5c0,-12.204 -7.525,-20.733 -18.329,-20.733Zm1.488,44.283c-15.442,0 -27.092,-10.179 -27.092,-23.704c-0,-14.863 11.533,-25.642 27.454,-25.642c14.788,0 26.379,10.3 26.379,23.446c0,14.521 -11.754,25.9 -26.741,25.9Z" id="Fill-52"/><path style="fill:#092f56;" d="M1932.7,206.554c-15.933,0 -24.246,-12 -24.246,-23.846c0,-10.233 6.963,-25.5 26.2,-25.5c5.48,0 9.667,1.221 12.159,1.942c0.779,0.221 1.641,0.471 1.9,0.475c0.337,0 0.512,-0.067 0.541,-0.092l0.463,-0.391l3.216,-0l0.001,14.704l-4.363,-0l-0.271,-1.3c-1.5,-6.896 -5.691,-10.275 -12.825,-10.275c-11.837,-0 -17.129,10.054 -17.129,19.996c0,14.129 9.921,19.237 16.588,19.237c3.1,0 6.116,-0.675 9.17,-2.091l0,-7.813c0,-2.912 -0.491,-3.717 -4.012,-3.717l-4.25,0l-0,-4.57l22.329,-0l0,4.458l-1.542,0.112c-3.075,0.196 -3.416,0.988 -3.416,2.813l-0,10.779l-0.88,0.45c-7.333,3.792 -16.674,4.629 -19.633,4.629" id="Fill-53"/><path style="fill:#092f56;" d="M1996.18,205.442l-22.691,-0l-0,-4.625l2.996,-0c3.62,-0 3.979,-1.054 3.979,-3.45l-0,-9.442l-12.288,-19.179c-3.287,-5.171 -4.5,-5.713 -8.3,-5.834l-1.617,-0.041l0,-4.584l22.071,0l0,4.625l-1.654,0c-2.396,0 -3.158,0.296 -3.367,0.392c0.096,0.025 0.259,0.521 0.984,1.684l9.837,15.158l8.6,-14.613c0.992,-1.658 0.846,-2.195 0.846,-2.195c-0.008,-0 -0.496,-0.425 -3.05,-0.425l-1.633,-0l-0,-4.625l19.246,-0l-0,4.516l-1.525,0.109c-4.175,0.316 -5.804,1.854 -7.542,4.77l-11.467,19.405l0,10.137c0,2.779 0.513,3.592 3.992,3.592l2.583,-0l0,4.625" id="Fill-54"/><path style="fill:#092f56;" d="M131.283,48.329c3.704,2.309 7,5.188 9.863,8.6c0.554,-1.012 0.925,-1.816 1.317,-2.662c0.266,-0.588 0.533,-1.142 0.837,-1.771c1.208,-2.354 1.563,-4.338 0.946,-5.35c-0.617,-0.996 -2.383,-1.158 -3.375,-1.158c-0.65,-0 -1.346,0.054 -2.1,0.183c-2.184,0.362 -4.696,1.071 -7.488,2.158Zm-65.033,-2.341c-0.996,-0 -2.763,0.162 -3.388,1.162c-0.608,1.017 -0.262,2.992 0.93,5.333c0.32,0.634 0.579,1.196 0.845,1.775c0.4,0.863 0.78,1.68 1.359,2.717c2.854,-3.337 6.171,-6.192 9.916,-8.537c-2.941,-1.167 -5.474,-1.917 -7.575,-2.267c-0.745,-0.129 -1.437,-0.183 -2.087,-0.183Zm21.771,2.52c5.067,2.709 10.487,6.013 15.554,9.492c5.367,-3.733 10.604,-7 15.483,-9.638c-9.32,-2.845 -21.454,-2.912 -31.037,0.146Zm19.983,12.692c5.517,4.296 11.842,10.15 17.467,16.167c3.3,-3.705 5.925,-6.8 7.975,-9.417c2.046,-2.637 3.591,-4.708 4.779,-6.417c-3.504,-4.529 -7.808,-8.091 -12.838,-10.616c-5.295,2.566 -11.233,6.087 -17.383,10.283Zm-39.104,0.358c1.187,1.709 2.729,3.767 4.779,6.392c2.058,2.638 4.721,5.771 8.067,9.558c5.641,-6.125 11.954,-12.02 17.412,-16.262c-5.812,-3.9 -11.958,-7.517 -17.408,-10.184c-5.071,2.584 -9.379,6.1 -12.85,10.496Zm60.054,19.679c4.096,4.696 8.829,10.709 12.242,16.838c3.229,-9.204 5.812,-22.146 0.108,-31.967c-1.033,1.417 -2.287,3.084 -3.792,5.034c-2.191,2.779 -5.004,6.091 -8.55,10.058l0.005,0.008l-0.013,0.029Zm-63.146,-15.12c-6.012,10.354 -2.612,24.025 0.371,32.087c3.363,-6.104 8.05,-12.121 12.113,-16.837l-0.025,-0.013l0.004,-0.004c-3.596,-4.017 -6.45,-7.396 -8.659,-10.208c-1.516,-1.942 -2.77,-3.609 -3.804,-5.025Zm19.417,15.221c4.725,5.183 9.625,10.316 13.554,14.445c1.842,1.934 3.471,3.621 4.758,5.017l0.03,-0.046l0.02,0.046c1.3,-1.4 2.917,-3.121 4.771,-5.037c3.946,-4.15 8.892,-9.355 13.638,-14.563c-5.975,-6.433 -12.771,-12.654 -18.404,-16.858c-5.609,4.196 -12.384,10.458 -18.367,16.996Zm21.854,23.283c1.283,1.379 2.975,3.142 4.892,5.187c3.829,4.005 8.591,9.013 13.233,14.075c6.279,-7.379 10.988,-14.158 13.438,-19.412c-2.45,-5.567 -6.975,-12.204 -13.18,-19.392c-4.658,5.092 -9.487,10.159 -13.37,14.238c-1.975,2.066 -3.692,3.896 -5.013,5.304Zm-38.229,-0.2c3.008,6.133 7.475,12.779 13.033,19.475c4.659,-5.058 9.442,-10.092 13.279,-14.129c1.925,-2.017 3.6,-3.775 4.896,-5.146c-1.321,-1.404 -3.045,-3.225 -5.016,-5.283c-3.842,-4.03 -8.621,-9.046 -13.267,-14.105c-6.008,7.042 -10.542,13.742 -12.925,19.188Zm-2.45,6.408c-4.883,14.213 -5.025,24.296 -0.588,32.279c1.03,-1.412 2.284,-3.083 3.796,-5.02c2.234,-2.859 5.113,-6.234 8.763,-10.334l0.008,-0.012c-4.808,-5.734 -8.871,-11.467 -11.979,-16.913Zm62.292,16.892c3.679,4.112 6.566,7.504 8.816,10.367c1.509,1.945 2.763,3.616 3.796,5.033c4.492,-7.742 4.409,-18.558 -0.233,-32.254c-2.929,5.021 -7.158,10.771 -12.379,16.841l0.004,0.013l-0.004,-0Zm-43.409,0.112c5.896,6.58 12.521,12.767 18.292,17.059c5.271,-3.967 11.983,-10.292 18.187,-17.138c-4.725,-5.154 -9.616,-10.308 -13.525,-14.396c-1.791,-1.891 -3.383,-3.545 -4.645,-4.92l-0.025,0.058l-0.038,-0.058c-1.258,1.37 -2.833,3.012 -4.629,4.904c-3.933,4.104 -8.858,9.291 -13.617,14.491Zm-16.42,19.896c3.387,4.384 7.687,7.904 12.812,10.488c5.458,-2.671 11.629,-6.3 17.463,-10.221c-5.571,-4.321 -11.771,-10.163 -17.33,-16.321c-3.383,3.775 -6.062,6.95 -8.129,9.604c-2.075,2.65 -3.625,4.738 -4.816,6.45Zm39.125,0.275c6.175,4.238 12.12,7.763 17.395,10.317c5.034,-2.521 9.342,-6.079 12.846,-10.621c-1.191,-1.712 -2.733,-3.783 -4.787,-6.421c-2.092,-2.666 -4.792,-5.862 -8.196,-9.666c-5.888,6.45 -12.05,12.312 -17.258,16.391Zm-19.988,12.775c9.567,2.996 21.721,2.942 31.05,0.092c-4.867,-2.629 -10.104,-5.896 -15.479,-9.633c-5.092,3.5 -10.504,6.804 -15.571,9.541Zm-22.054,-8.446c-0.546,1.013 -0.917,1.813 -1.308,2.655c-0.263,0.583 -0.521,1.145 -0.838,1.766c-1.196,2.346 -1.542,4.317 -0.942,5.3c0.625,1.025 2.396,1.188 3.392,1.188c0.65,-0 1.342,-0.079 2.1,-0.184c2.071,-0.333 4.571,-1.07 7.458,-2.216c-3.754,-2.346 -7.05,-5.188 -9.862,-8.509Zm65.337,8.584c2.792,1.079 5.305,1.787 7.492,2.141c0.75,0.105 1.446,0.184 2.096,0.184c0.996,-0 2.758,-0.163 3.379,-1.179c0.613,-0.984 0.254,-2.955 -0.942,-5.284c-0.312,-0.646 -0.583,-1.208 -0.845,-1.8c-0.392,-0.85 -0.763,-1.654 -1.317,-2.671c-2.863,3.388 -6.158,6.288 -9.863,8.609Zm9.588,7.475c-0.888,-0 -1.858,-0.071 -2.892,-0.246c-3.591,-0.542 -7.821,-1.942 -12.604,-4.125c-6.379,2.771 -13.712,4.154 -21.808,4.154c-8,0 -15.35,-1.412 -21.867,-4.25c-4.946,2.271 -9.171,3.708 -12.554,4.221c-5.238,0.817 -8.908,-0.463 -10.692,-3.388c-1.125,-1.866 -1.916,-5.158 0.746,-10.32l0.758,-1.609c0.605,-1.333 1.28,-2.787 2.659,-5c-0.421,-0.654 -0.809,-1.316 -1.2,-1.991c-5.838,-10.313 -5.288,-23.063 1.791,-41.263c-3.158,-7.071 -10.395,-26.587 -1.766,-41.225c0.383,-0.646 0.775,-1.283 1.191,-1.921c-1.375,-2.212 -2.066,-3.671 -2.67,-5l-0.771,-1.625c-2.654,-5.166 -1.863,-8.471 -0.729,-10.341c1.775,-2.913 5.45,-4.213 10.679,-3.384c3.404,0.534 7.646,1.979 12.616,4.267c6.509,-2.858 13.838,-4.292 21.809,-4.292c8.091,0 15.429,1.392 21.812,4.163c4.779,-2.171 9,-3.579 12.588,-4.138c5.262,-0.812 8.9,0.463 10.687,3.384c1.129,1.87 1.929,5.175 -0.754,10.358l-0.758,1.608c-0.604,1.325 -1.279,2.779 -2.663,4.988c0.417,0.637 0.825,1.287 1.2,1.933c7.938,13.513 2.734,31.204 -1.433,41.208c6.846,17.459 7.321,31.321 1.433,41.321c-0.375,0.654 -0.783,1.296 -1.2,1.909c1.384,2.245 2.063,3.708 2.667,5.041l0.767,1.625c2.67,5.146 1.87,8.446 0.741,10.313c-1.429,2.325 -4.191,3.625 -7.783,3.625Z" id="Fill-55"/><path style="fill:#092f56;" d="M0,4.304l48.558,0l-12.962,20.192l-0,159.25l105.504,-0l24.608,-17.296l-20.712,38.45l-144.996,0l12.287,-21.154l0,-159.25l-12.287,-20.192" id="Fill-56"/><path style="fill:#092f56;" d="M207.188,204.9l-48.559,0l12.963,-20.167l-0,-159.25l-105.517,0l-24.596,17.275l20.713,-38.454l144.996,0l-12.288,21.179l0,159.25l12.288,20.167" id="Fill-57"/></g></svg>